<?xml version="1.0" encoding="UTF-8" standalone="no"?>
<!-- Created with Inkscape (http://www.inkscape.org/) -->

<svg
   xmlns:dc="http://purl.org/dc/elements/1.1/"
   xmlns:cc="http://creativecommons.org/ns#"
   xmlns:rdf="http://www.w3.org/1999/02/22-rdf-syntax-ns#"
   xmlns:svg="http://www.w3.org/2000/svg"
   xmlns="http://www.w3.org/2000/svg"
   xmlns:sodipodi="http://sodipodi.sourceforge.net/DTD/sodipodi-0.dtd"
   xmlns:inkscape="http://www.inkscape.org/namespaces/inkscape"
   width="744.09448819"
   height="1052.3622047"
   id="svg2985"
   version="1.1"
   inkscape:version="0.48.5 r10040"
   sodipodi:docname="Documento nuevo 2">
  <defs
     id="defs2987" />
  <sodipodi:namedview
     id="base"
     pagecolor="#ffffff"
     bordercolor="#ffffff"
     borderopacity="0.0"
     inkscape:pageopacity="0.0"
     inkscape:pageshadow="0"
     inkscape:zoom="0.24748737"
     inkscape:cx="-644.49585"
     inkscape:cy="1033.5002"
     inkscape:document-units="px"
     inkscape:current-layer="layer2"
     showgrid="false"
     inkscape:window-width="1440"
     inkscape:window-height="836"
     inkscape:window-x="0"
     inkscape:window-y="36"
     inkscape:window-maximized="1" />
  <metadata
     id="metadata2990">
    <rdf:RDF>
      <cc:Work
         rdf:about="">
        <dc:format>image/svg+xml</dc:format>
        <dc:type
           rdf:resource="http://purl.org/dc/dcmitype/StillImage" />
        <dc:title></dc:title>
      </cc:Work>
    </rdf:RDF>
  </metadata>
  <g
     inkscape:groupmode="layer"
     id="layer3"
     inkscape:label="Capa-1">
    <path
       style="fill:#7c916f;fill-opacity:1;stroke:#000000;stroke-width:2.62580061px;stroke-linecap:butt;stroke-linejoin:miter;stroke-opacity:1"
       d="m -837.57005,-272.25853 c 23.72788,-4.19283 54.08662,-2.99738 77.8145,-3.52213 0,0 -1.65348,140.85636 -4.87785,142.9052 -3.40999,2.16681 -71.39045,6.54438 -71.39045,-4.12641 z"
       id="path3448"
       inkscape:connector-curvature="0"
       sodipodi:nodetypes="ccscc" />
  </g>
  <g
     inkscape:label="capa1"
     inkscape:groupmode="layer"
     id="layer1">
    <path
       style="fill:#00ff00;stroke:#000000;stroke-width:1.11558831px;stroke-linecap:butt;stroke-linejoin:miter;stroke-opacity:1"
       d="m -83.07717,388.77337 c -17.8593,-2.73417 -5.793203,-23.28217 6.14717,-16.91444 6.653305,18.76586 6.399705,-10.45425 19.291221,-4.64291 11.209876,2.12004 -0.620928,18.16617 10.469545,7.03819 17.981513,-9.71251 14.317543,15.21704 1.479128,18.80399 -0.03198,20.08312 -1.901284,41.00953 4.134764,60.38693 8.159753,16.94841 31.7677694,21.15959 47.2606529,12.53634 2.2527064,-15.1838 -5.77634104,-33.48969 0.8358235,-49.50316 C 16.030966,399.65013 -16.066626,412.55466 -15.189705,393.48529 -17.88747,373.67118 11.816437,383.75972 7.8789403,367.06425 20.25468,351.09328 44.069872,354.38527 62.03983,353.46173 c 14.870627,1.23139 40.11807,-0.61143 41.28863,20.0061 2.13537,8.0747 26.26717,2.79133 20.03377,21.41207 -4.22634,15.61241 -26.681908,3.06441 -14.82733,20.99517 5.86219,14.8077 -7.50808,37.3565 -1.93543,47.17937 15.00666,0 30.01332,0 45.01998,0 5.42755,-9.32592 1.93402,-20.35305 2.6271,-30.58181 -0.29614,-16.58745 -0.59228,-33.17489 -0.88842,-49.76234 -13.79174,-7.50745 3.63808,-16.58301 9.80447,-12.06587 2.76544,2.90402 6.34442,15.78874 8.11072,6.43506 1.12195,-6.8251 4.71459,-9.84789 11.58908,-7.82002 8.69522,-2.32338 5.57126,5.87303 5.42232,11.42149 0.96134,2.76552 4.34774,-10.29116 7.52202,-10.70715 3.4596,2.30098 14.84112,3.02213 13.10548,6.35918 -3.52027,4.24812 -10.22034,6.97454 -11.62682,12.23422 -1.29788,23.65427 -2.59575,47.30853 -3.89363,70.9628 -11.80804,11.49165 -18.53959,35.02998 -38.74397,29.74706 -12.08236,2.04331 -35.09786,-6.726 -29.43636,13.51149 -0.73037,28.37073 13.30126,54.63769 28.94022,77.23402 14.09069,9.28504 39.56236,-14.69315 44.91622,10.08634 3.16381,13.33782 8.70297,31.72768 -0.94297,42.91699 -9.65196,6.43452 -20.94915,10.97635 -29.18639,19.04622 -1.13857,15.03331 3.84713,34.66578 14.30582,43.15733 -6.20116,10.90042 -19.49945,9.07968 -23.96936,-1.99597 -3.08151,14.23967 -22.15694,13.11473 -18.67586,-1.78499 -8.02151,-3.97289 -21.16717,22.55968 -26.35163,4.83343 3.79756,-7.78942 17.15829,-8.54757 15.80587,-19.43874 5.61178,-15.93139 -11.96628,-43.10922 8.6425,-50.28281 21.43122,-2.87717 15.95117,-30.32212 -4.53678,-26.68391 -13.875,-0.48798 -34.373557,-2.66234 -40.49354,13.00231 -9.393273,15.43846 -31.89268,12.06826 -47.421484,11.29226 -18.723053,2.64078 -23.822264,-18.30717 -40.3501342,-19.51245 -15.5697676,0 -31.1395348,0 -46.7093028,0 -1.24743,10.14853 7.297768,31.3735 21.29136,33.46907 19.21603841,10.47599 -7.246799,36.30093 9.200193,47.01059 3.9790385,18.55127 -20.399227,11.5423 -17.419574,3.53694 -7.898389,18.51656 -25.022185,2.21156 -19.47678,-4.67316 -6.096152,7.15367 -17.541881,16.68731 -23.058461,2.63505 7.698571,-11.6775 12.360135,-25.88308 13.674177,-41.41123 3.525893,-17.61028 -22.231825,-10.03234 -22.912399,-27.53731 -11.262822,-14.8374 -17.923252,-48.40969 10.468138,-45.61806 15.720655,-0.43489 35.914531,11.34228 43.433827,-9.55747 12.575084,-21.17014 18.8357637,-48.40976 9.388197,-71.99469 -17.345284,-0.83458 -34.886679,0.19063 -52.095505,-1.9441 -15.523225,-3.28764 -17.526254,-21.01944 -16.273148,-34.16818 0.506062,-21.87755 1.012124,-43.75511 1.518186,-65.63266 z"
       id="path3006"
       inkscape:connector-curvature="0"
       sodipodi:nodetypes="cccccccccccccccccccccccccccccccccccccccccccccccccccccccc" />
    <path
       style="fill:#ffffff;stroke:#000000;stroke-width:1px;stroke-linecap:butt;stroke-linejoin:miter;stroke-opacity:1"
       d="m 4.8214286,407.18361 c -0.3571429,0 -5.35714289,-1.25 -5.35714289,-1.25 l -4.64285711,-0.98214 -4.1071429,-1.25 -3.1249997,-2.23215 -2.142857,-2.94642 -0.535715,-3.30358 -0.357143,-2.76785 0.357143,-2.58929 0.178567,-2.12054 1.227678,-2.47767 1.629465,-2.00893 3.2142853,-2.05357 3.5714285,-1.51786 4.55357148,-1.33929 3.66071432,-1.33928 c 19.1118694,8.48215 9.0544284,32.67969 1.875005,30.17857 z"
       id="path3021"
       inkscape:connector-curvature="0"
       sodipodi:nodetypes="ccccccccccccccccc" />
    <path
       style="fill:#008080;stroke:#000000;stroke-width:1px;stroke-linecap:butt;stroke-linejoin:miter;stroke-opacity:1"
       d="m -7.7633703,379.12623 c -0.8483793,1.302 -1.7681505,2.72614 -1.7009155,4.48595 -0.162837,1.40184 1.516724,4.72919 6.0714286,4.64286 4.7859845,-0.34182 4.8272378,-3.70301 4.4642857,-7.32143 -0.28932663,-3.01151 -4.693334,-6.70657 -8.8347988,-1.80738 z"
       id="path3023"
       inkscape:connector-curvature="0"
       sodipodi:nodetypes="ccccc" />
    <path
       style="fill:#ffffff;stroke:#000000;stroke-width:1px;stroke-linecap:butt;stroke-linejoin:miter;stroke-opacity:1"
       d="m 106.02679,376.69254 2.05357,0.75893 3.125,1.07142 3.08035,1.02679 2.85715,0.89286 2.72321,1.38393 2.23214,1.65178 1.65179,2.14286 0.58036,2.41071 0,2.41072 -0.58036,2.99107 -0.89286,2.90178 -1.65178,3.08036 -2.41072,2.05357 -3.125,1.5625 -2.85714,0.9375 -3.88393,0.80357 -1.07143,0.26786 c -10.865154,3.36665 -14.13329,-24.70118 -1.83035,-28.34821 z"
       id="path3025"
       inkscape:connector-curvature="0"
       sodipodi:nodetypes="ccccccccccccccccccc" />
    <path
       style="fill:#008080;stroke:#000000;stroke-width:1px;stroke-linecap:butt;stroke-linejoin:miter;stroke-opacity:1"
       d="m 108.69234,378.98875 c -0.84838,1.302 -1.76815,2.72614 -1.70091,4.48595 -0.16284,1.40184 1.51672,4.72919 6.07143,4.64286 4.78598,-0.34182 4.82723,-3.70301 4.46428,-7.32143 -0.28933,-3.01151 -4.69333,-6.70657 -8.8348,-1.80738 z"
       id="path3023-3"
       inkscape:connector-curvature="0"
       sodipodi:nodetypes="ccccc" />
    <path
       style="fill:#55d400;stroke:#000000;stroke-width:1px;stroke-linecap:butt;stroke-linejoin:miter;stroke-opacity:1;fill-opacity:1"
       d="m -1.5152288,517.99149 c 6.6500612,6.19463 -2.3360028,15.14858 -3.5355339,22.72843 -0.3577127,11.88292 8.4991092,17.18582 18.6878217,11.61675 5.724198,-4.2384 11.448396,-12.79527 17.172594,-19.1929 8.846015,-8.65324 -9.764808,-16.16244 -14.647212,-24.24366 -6.4411212,-13.72908 -23.3487155,3.7482 -17.6776698,9.09138 z"
       id="path3045"
       inkscape:connector-curvature="0"
       sodipodi:nodetypes="cccccc" />
    <path
       style="fill:#55d400;stroke:#000000;stroke-width:1px;stroke-linecap:butt;stroke-linejoin:miter;stroke-opacity:1"
       d="m 78.791899,471.01939 c 4.444558,7.00186 -2.054183,19.52962 -3.030458,29.29443 -0.164648,10.63074 25.098839,19.04297 25.758889,11.11167 -0.16015,-10.54501 10.10153,-14.14213 15.15229,-21.2132 10.88221,-8.47197 -44.748133,-30.89225 -37.880721,-19.1929 z"
       id="path3047"
       inkscape:connector-curvature="0"
       sodipodi:nodetypes="ccccc" />
    <path
       style="fill:#55d400;stroke:#000000;stroke-width:1px;stroke-linecap:butt;stroke-linejoin:miter;stroke-opacity:1;fill-opacity:1"
       d="m 74.246212,569.50927 c -9.765084,3.92397 -6.444664,23.45685 3.030458,21.71828 13.36686,-0.0506 26.2171,3.34293 40.91118,-5.55584 6.15932,-2.6777 -4.71405,-17.84603 -7.07107,-26.76905 -2.24936,-9.2089 -17.210253,-12.14768 -22.223356,-5.05076 -4.872966,5.33238 -9.562607,12.86466 -14.647212,15.65737 z"
       id="path3049"
       inkscape:connector-curvature="0"
       sodipodi:nodetypes="cccccc" />
    <path
       style="fill:#55d400;stroke:#000000;stroke-width:1px;stroke-linecap:butt;stroke-linejoin:miter;stroke-opacity:1;fill-opacity:1"
       d="m 177.72371,579.86332 c 0.76724,7.79663 -1.48691,17.66052 5.1139,21.46575 5.47188,2.19742 12.35572,6.7344 18.43528,-1.8309 l 0.0631,0.0631 -0.50508,-1.95717 -1.07328,-4.54568 -1.26269,-5.42957 -1.70464,-3.91434 -2.58851,-2.96733 -3.40927,-1.8309 -3.34613,-0.25254 -5.1139,0.18941 z"
       id="path3051"
       inkscape:connector-curvature="0"
       sodipodi:nodetypes="ccccccccccccc" />
    <path
       style="fill:#55d400;stroke:#000000;stroke-width:1px;stroke-linecap:butt;stroke-linejoin:miter;stroke-opacity:1;fill-opacity:1"
       d="m -83.842661,425.30999 c 5.050763,1.68359 14.979416,-1.10423 15.152288,5.05076 -1.010153,6.06092 2.968105,15.11488 -3.030458,18.18275 -2.525381,1.59941 -5.739551,-0.24513 -7.576144,4.79822 -0.93526,3.0997 -3.120378,2.61795 -5.303301,0 z"
       id="path3053"
       inkscape:connector-curvature="0"
       sodipodi:nodetypes="cccccc" />
    <path
       style="fill:#55d400;stroke:#000000;stroke-width:1px;stroke-linecap:butt;stroke-linejoin:miter;stroke-opacity:1;fill-opacity:1"
       d="m -88.839286,594.59432 c 5.922619,1.07143 16.048331,-3.32116 17.767857,3.21429 0.683849,4.61357 -1.065018,10.93004 2.053572,13.83929 3.311857,2.49625 -4.807405,6.28139 -11.428572,4.64285 l -3.660715,-5.98214 -1.696428,-4.91072 -1.964286,-5 z"
       id="path3055"
       inkscape:connector-curvature="0"
       sodipodi:nodetypes="cccccccc" />
    <path
       style="fill:#00ff00;stroke:#000000;stroke-width:1.29093802px;stroke-linecap:butt;stroke-linejoin:miter;stroke-opacity:1"
       d="m 404.93679,289.92439 c -17.8593,-3.66125 -5.7932,-31.17643 6.14717,-22.6496 6.65331,25.12878 6.39971,-13.99896 19.29122,-6.21718 11.20988,2.83888 -0.62092,24.32575 10.46955,9.42462 17.98151,-13.00572 14.31754,20.37667 1.47913,25.17984 -0.032,26.89268 -1.90129,54.91458 4.13476,80.86225 8.15975,22.69508 31.76777,28.33414 47.26065,16.78702 2.25271,-20.33215 -5.77634,-44.845 0.83583,-66.28813 9.48983,-22.53409 -22.60776,-5.25404 -21.73084,-30.78924 -2.69777,-26.53245 27.00614,-13.02321 23.06865,-35.37959 12.37574,-21.38622 36.19093,-16.97802 54.16089,-18.21471 14.87062,1.64892 40.11807,-0.81874 41.28863,26.78955 2.13537,10.81257 26.26717,3.73778 20.03377,28.67223 -4.22634,20.90609 -26.68191,4.10346 -14.82733,28.11398 5.86219,19.82852 -7.50808,50.02292 -1.93543,63.17642 15.00666,0 30.01332,0 45.01998,0 5.42755,-12.48805 1.93402,-27.25414 2.6271,-40.95115 -0.29614,-22.21174 -0.59228,-44.42346 -0.88842,-66.63519 -13.79174,-10.053 3.63808,-22.20579 9.80447,-16.15703 2.76544,3.88868 6.34442,21.1422 8.11072,8.61698 1.12195,-9.13927 4.71459,-13.187 11.58908,-10.47154 8.69522,-3.11117 5.57126,7.86439 5.42232,15.29416 0.96134,3.70322 4.34774,-13.78057 7.52202,-14.33761 3.4596,3.08117 14.84112,4.04684 13.10548,8.51538 -3.52027,5.68852 -10.22034,9.33939 -11.62682,16.38246 -1.29788,31.67469 -2.59575,63.34937 -3.89363,95.02407 -11.80804,15.38811 -18.53959,46.90755 -38.74397,39.83336 -12.08236,2.73613 -35.09786,-9.00658 -29.43636,18.09281 -0.73037,37.99036 13.30126,73.16362 28.94022,103.42166 14.09069,12.43331 39.56236,-19.67514 44.91622,13.5063 3.16381,17.86026 8.70297,42.48555 -0.94297,57.4688 -9.65196,8.61627 -20.94915,14.69809 -29.18639,25.5042 -1.13857,20.13064 3.84713,46.41986 14.30582,57.79063 -6.20116,14.59641 -19.49945,12.15832 -23.96936,-2.67274 -3.08151,19.0679 -22.15694,17.56153 -18.67586,-2.39022 -8.02151,-5.31997 -21.16717,30.20896 -26.35163,6.47229 3.79756,-10.43057 17.15829,-11.44578 15.80587,-26.02981 5.61178,-21.33322 -11.96628,-57.72621 8.6425,-67.33214 21.43122,-3.85272 15.95117,-40.6034 -4.53678,-35.73158 -13.875,-0.65344 -34.37356,-3.56506 -40.49354,17.41098 -9.39328,20.67316 -31.89268,16.16023 -47.42149,15.12111 -18.72305,3.53619 -23.82226,-24.51455 -40.35013,-26.12851 -15.56977,0 -31.13954,0 -46.70931,0 -1.24743,13.58958 7.29777,42.01128 21.29136,44.81739 19.21604,14.02807 -7.2468,48.60944 9.2002,62.95041 3.97903,24.84143 -20.39923,15.45593 -17.41958,4.73621 -7.89839,24.79494 -25.02218,2.96143 -19.47678,-6.25769 -6.09615,9.57926 -17.54188,22.34546 -23.05846,3.52852 7.69857,-15.63698 12.36014,-34.65923 13.67418,-55.45249 3.52589,-23.58137 -22.23183,-13.43399 -22.9124,-36.87435 -11.26282,-19.8683 -17.92325,-64.8239 10.46814,-61.08572 15.72065,-0.58234 35.91453,15.1881 43.43382,-12.79811 12.57509,-28.34827 18.83577,-64.82399 9.3882,-96.40584 -17.34528,-1.11756 -34.88668,0.25527 -52.0955,-2.60328 -15.52323,-4.40237 -17.52626,-28.14647 -16.27315,-45.75354 0.50606,-29.29554 1.01212,-58.5911 1.51818,-87.88664 z"
       id="path3006-6"
       inkscape:connector-curvature="0"
       sodipodi:nodetypes="cccccccccccccccccccccccccccccccccccccccccccccccccccccccc" />
    <path
       style="fill:#ffffff;stroke:#000000;stroke-width:1.15718138px;stroke-linecap:butt;stroke-linejoin:miter;stroke-opacity:1"
       d="m 492.83539,314.57696 c -0.35714,0 -5.35714,-1.67383 -5.35714,-1.67383 l -4.64286,-1.31516 -4.10714,-1.67383 -3.125,-2.989 -2.14286,-3.94546 -0.53571,-4.42372 -0.35715,-3.70634 0.35715,-3.46724 0.17856,-2.83955 1.22768,-3.31777 1.62947,-2.6901 3.21428,-2.74987 3.57143,-2.03252 4.55357,-1.7934 3.66072,-1.79339 c 19.11187,11.35819 9.05443,43.76035 1.875,40.41118 z"
       id="path3021-7"
       inkscape:connector-curvature="0"
       sodipodi:nodetypes="ccccccccccccccccc" />
    <path
       style="fill:#008080;stroke:#000000;stroke-width:1.15718138px;stroke-linecap:butt;stroke-linejoin:miter;stroke-opacity:1"
       d="m 480.25059,277.0062 c -0.84838,1.74347 -1.76815,3.65049 -1.70091,6.007 -0.16284,1.87716 1.51672,6.33271 6.07143,6.21711 4.78598,-0.45772 4.82723,-4.95859 4.46428,-9.8039 -0.28932,-4.03262 -4.69333,-8.98056 -8.8348,-2.42021 z"
       id="path3023-5"
       inkscape:connector-curvature="0"
       sodipodi:nodetypes="ccccc" />
    <path
       style="fill:#ffffff;stroke:#000000;stroke-width:1.15718138px;stroke-linecap:butt;stroke-linejoin:miter;stroke-opacity:1"
       d="m 594.04076,273.74732 2.05357,1.01626 3.125,1.43471 3.08035,1.37494 2.85715,1.1956 2.72321,1.85318 2.23214,2.21185 1.65179,2.86943 0.58036,3.22811 0,3.22812 -0.58036,4.00525 -0.89286,3.88568 -1.65178,4.12481 -2.41072,2.74988 -3.125,2.09229 -2.85714,1.25538 -3.88393,1.07603 -1.07143,0.35869 c -10.86516,4.50817 -14.13329,-33.07658 -1.83035,-37.96021 z"
       id="path3025-3"
       inkscape:connector-curvature="0"
       sodipodi:nodetypes="ccccccccccccccccccc" />
    <path
       style="fill:#008080;stroke:#000000;stroke-width:1.15718138px;stroke-linecap:butt;stroke-linejoin:miter;stroke-opacity:1"
       d="m 596.70631,276.82211 c -0.84838,1.74347 -1.76815,3.65049 -1.70091,6.00699 -0.16284,1.87716 1.51672,6.33271 6.07143,6.21711 4.78598,-0.45772 4.82723,-4.95858 4.46428,-9.8039 -0.28933,-4.03262 -4.69333,-8.98055 -8.8348,-2.4202 z"
       id="path3023-3-5"
       inkscape:connector-curvature="0"
       sodipodi:nodetypes="ccccc" />
    <path
       style="fill:#55d400;fill-opacity:1;stroke:#000000;stroke-width:1.15718138px;stroke-linecap:butt;stroke-linejoin:miter;stroke-opacity:1"
       d="m 486.49873,462.95633 c 6.65007,8.29504 -2.336,20.28499 -3.53553,30.43493 -0.35771,15.91205 8.49911,23.013 18.68783,15.55563 5.72419,-5.67551 11.44839,-17.13375 17.17259,-25.70061 8.84601,-11.58729 -9.76481,-21.64262 -14.64721,-32.46393 -6.44112,-18.38418 -23.34872,5.0191 -17.67768,12.17398 z"
       id="path3045-6"
       inkscape:connector-curvature="0"
       sodipodi:nodetypes="cccccc" />
    <path
       style="fill:#55d400;stroke:#000000;stroke-width:1.15718138px;stroke-linecap:butt;stroke-linejoin:miter;stroke-opacity:1"
       d="m 566.80587,400.05746 c 4.44455,9.37597 -2.05419,26.1515 -3.03046,39.22726 -0.16465,14.23529 25.09884,25.49984 25.75889,14.87929 -0.16015,-14.1205 10.10153,-18.93729 15.15229,-28.40594 10.88221,-11.34455 -44.74814,-41.36684 -37.88072,-25.70061 z"
       id="path3047-2"
       inkscape:connector-curvature="0"
       sodipodi:nodetypes="ccccc" />
    <path
       style="fill:#55d400;fill-opacity:1;stroke:#000000;stroke-width:1.15718138px;stroke-linecap:butt;stroke-linejoin:miter;stroke-opacity:1"
       d="m 562.26018,531.94218 c -9.76509,5.25447 -6.44467,31.41033 3.03046,29.08227 13.36686,-0.0678 26.2171,4.47641 40.91118,-7.43965 6.15932,-3.58563 -4.71405,-23.89706 -7.07107,-35.8456 -2.24936,-12.33135 -17.21026,-16.26658 -22.22336,-6.76331 -4.87297,7.14042 -9.56261,17.22666 -14.64721,20.96629 z"
       id="path3049-9"
       inkscape:connector-curvature="0"
       sodipodi:nodetypes="cccccc" />
    <path
       style="fill:#55d400;fill-opacity:1;stroke:#000000;stroke-width:1.15718138px;stroke-linecap:butt;stroke-linejoin:miter;stroke-opacity:1"
       d="m 665.73768,545.80696 c 0.76724,10.44023 -1.48691,23.64866 5.1139,28.74412 5.47188,2.9425 12.35572,9.01782 18.43528,-2.4517 l 0.0631,0.0845 -0.50508,-2.62078 -1.07328,-6.08698 -1.26269,-7.27057 -1.70464,-5.24157 -2.58851,-3.97346 -3.40927,-2.4517 -3.34613,-0.33817 -5.1139,0.25364 z"
       id="path3051-1"
       inkscape:connector-curvature="0"
       sodipodi:nodetypes="ccccccccccccc" />
    <path
       style="fill:#55d400;fill-opacity:1;stroke:#000000;stroke-width:1.15718138px;stroke-linecap:butt;stroke-linejoin:miter;stroke-opacity:1"
       d="m 404.1713,338.84943 c 5.05077,2.25444 14.97942,-1.47864 15.15229,6.76332 -1.01015,8.11599 2.96811,20.23986 -3.03046,24.34795 -2.52538,2.14172 -5.73955,-0.32825 -7.57614,6.42515 -0.93526,4.15071 -3.12038,3.50561 -5.3033,0 z"
       id="path3053-2"
       inkscape:connector-curvature="0"
       sodipodi:nodetypes="cccccc" />
    <path
       style="fill:#55d400;fill-opacity:1;stroke:#000000;stroke-width:1.15718138px;stroke-linecap:butt;stroke-linejoin:miter;stroke-opacity:1"
       d="m 399.17468,565.53279 c 5.92262,1.43471 16.04833,-4.44727 17.76785,4.30415 0.68385,6.17789 -1.06501,14.63608 2.05358,18.53176 3.31185,3.34265 -4.80741,8.41122 -11.42858,6.2171 l -3.66071,-8.0105 -1.69643,-6.57579 -1.96428,-6.69534 z"
       id="path3055-7"
       inkscape:connector-curvature="0"
       sodipodi:nodetypes="cccccccc" />
    <path
       style="fill:#00d4aa;stroke:#000000;stroke-width:1.11558830999999992px;stroke-linecap:butt;stroke-linejoin:miter;stroke-opacity:1"
       d="m -98.72323,-357.00936 c -17.8593,-2.73417 -5.7932,-23.28217 6.14717,-16.91444 6.653305,18.76586 6.399705,-10.45425 19.291221,-4.64291 11.209876,2.12004 -0.620928,18.16617 10.469545,7.03819 17.981513,-9.71251 14.317543,15.21704 1.479128,18.80399 -0.03198,20.08312 -1.901284,41.00953 4.134764,60.38693 8.159753,16.94841 31.767769,21.15959 47.2606528,12.53634 2.252703,-15.1838 -5.7763408,-33.48969 0.835823,-49.50316 9.48982997,-16.82818 -22.6077598,-3.92365 -21.7308388,-22.99302 -2.697765,-19.81411 27.0061388,-9.72557 23.0686488,-26.42104 12.37574,-15.97097 36.1909302,-12.67898 54.1608902,-13.60252 14.87062,1.23139 40.11807,-0.61143 41.28863,20.0061 2.13537,8.0747 26.267166,2.79133 20.033766,21.41207 -4.22634,15.61241 -26.681906,3.06441 -14.827326,20.99517 5.86219,14.8077 -7.50808,37.3565 -1.93543,47.17937 15.006656,0 30.013316,0 45.019976,0 5.42755,-9.32592 1.93402,-20.35305 2.6271,-30.58181 -0.29614,-16.58745 -0.59228,-33.17489 -0.88842,-49.76234 -13.79174,-7.50745 3.63808,-16.58301 9.80447,-12.06587 2.76544,2.90402 6.34442,15.78874 8.11072,6.43506 1.12195,-6.8251 4.71459,-9.84789 11.58908,-7.82002 8.69522,-2.32338 5.57126,5.87303 5.42232,11.42149 0.96134,2.76552 4.34774,-10.29116 7.52202,-10.70715 3.4596,2.30098 14.84112,3.02213 13.10548,6.35918 -3.52027,4.24812 -10.22034,6.97454 -11.62682,12.23422 -1.29788,23.65427 -2.59575,47.30853 -3.89363,70.9628 -11.80804,11.49165 -18.53959,35.02998 -38.74397,29.74706 -12.08236,2.04331 -35.09786,-6.726 -29.43636,13.51149 -0.73037,28.37073 13.30126,54.63769 28.94022,77.23402 14.09069,9.28504 39.56236,-14.69315 44.91622,10.08634 3.16381,13.33782 8.70297,31.72768 -0.94297,42.91699 -9.65196,6.43452 -20.94915,10.97635 -29.18639,19.046217 -1.13857,15.03331 3.84713,34.66578 14.30582,43.15733 -6.20116,10.90042 -19.49945,9.07968 -23.96936,-1.99597 -3.08151,14.23967 -22.15694,13.11473 -18.67586,-1.78499 -8.02151,-3.97289 -21.16717,22.55968 -26.351626,4.83343 3.797556,-7.78942 17.158286,-8.54757 15.805866,-19.43874 5.61178,-15.93139 -11.96628,-43.109217 8.6425,-50.282807 21.43122,-2.87717 15.95117,-30.32212 -4.53678,-26.68391 -13.875,-0.48798 -34.373556,-2.66234 -40.493536,13.00231 -9.39328,15.43846 -31.89268,12.06826 -47.42149,11.29226 -18.72305,2.64078 -23.8222602,-18.30717 -40.3501322,-19.51245 -15.5697678,0 -31.1395348,0 -46.7093028,0 -1.24743,10.14853 7.297768,31.3735 21.29136,33.46907 19.216039,10.475987 -7.246799,36.300927 9.200193,47.010587 3.979039,18.55127 -20.399227,11.5423 -17.419574,3.53694 -7.898389,18.51656 -25.022185,2.21156 -19.47678,-4.67316 -6.096152,7.15367 -17.541881,16.68731 -23.058461,2.63505 7.698571,-11.6775 12.360135,-25.88308 13.674177,-41.411227 3.525893,-17.61028 -22.231825,-10.03234 -22.912399,-27.53731 -11.262825,-14.8374 -17.923255,-48.40969 10.468138,-45.61806 15.720655,-0.43489 35.914531,11.34228 43.433827,-9.55747 12.575084,-21.17014 18.835764,-48.40976 9.388197,-71.99469 -17.345284,-0.83458 -34.886679,0.19063 -52.095505,-1.9441 -15.523225,-3.28764 -17.526252,-21.01944 -16.273152,-34.16818 0.506066,-21.87755 1.012128,-43.75511 1.51819,-65.63266 z"
       id="path3006-0"
       inkscape:connector-curvature="0"
       sodipodi:nodetypes="cccccccccccccccccccccccccccccccccccccccccccccccccccccccc" />
    <path
       style="fill:#ffffff;stroke:#000000;stroke-width:1px;stroke-linecap:butt;stroke-linejoin:miter;stroke-opacity:1"
       d="m -10.824631,-338.59912 c -0.357143,0 -5.357143,-1.25 -5.357143,-1.25 l -4.642857,-0.98214 -4.107143,-1.25 -3.125,-2.23215 -2.142857,-2.94642 -0.535715,-3.30358 -0.357143,-2.76785 0.357143,-2.58929 0.178567,-2.12054 1.227678,-2.47767 1.629465,-2.00893 3.214285,-2.05357 3.571429,-1.51786 4.553571,-1.33929 3.660715,-1.33928 c 19.1118698,8.48215 9.0544298,32.67969 1.875005,30.17857 z"
       id="path3021-9"
       inkscape:connector-curvature="0"
       sodipodi:nodetypes="ccccccccccccccccc" />
    <path
       style="fill:#008080;stroke:#000000;stroke-width:1px;stroke-linecap:butt;stroke-linejoin:miter;stroke-opacity:1"
       d="m -23.40943,-366.6565 c -0.84838,1.302 -1.768151,2.72614 -1.700916,4.48595 -0.162837,1.40184 1.516724,4.72919 6.071429,4.64286 4.785984,-0.34182 4.827238,-3.70301 4.464286,-7.32143 -0.289327,-3.01151 -4.693334,-6.70657 -8.834799,-1.80738 z"
       id="path3023-36"
       inkscape:connector-curvature="0"
       sodipodi:nodetypes="ccccc" />
    <path
       style="fill:#ffffff;stroke:#000000;stroke-width:1px;stroke-linecap:butt;stroke-linejoin:miter;stroke-opacity:1"
       d="m 90.380734,-369.09019 2.05357,0.75893 3.125,1.07142 3.08035,1.02679 2.857146,0.89286 2.72321,1.38393 2.23214,1.65178 1.65179,2.14286 0.58036,2.41071 0,2.41072 -0.58036,2.99107 -0.89286,2.90178 -1.65178,3.08036 -2.41072,2.05357 -3.125,1.5625 -2.857136,0.9375 -3.88393,0.80357 -1.07143,0.26786 c -10.86516,3.36665 -14.13329,-24.70118 -1.83035,-28.34821 z"
       id="path3025-0"
       inkscape:connector-curvature="0"
       sodipodi:nodetypes="ccccccccccccccccccc" />
    <path
       style="fill:#008080;stroke:#000000;stroke-width:1px;stroke-linecap:butt;stroke-linejoin:miter;stroke-opacity:1"
       d="m 93.046284,-366.79398 c -0.84838,1.302 -1.76815,2.72614 -1.70091,4.48595 -0.16284,1.40184 1.51672,4.72919 6.07143,4.64286 4.785976,-0.34182 4.827226,-3.70301 4.464276,-7.32143 -0.28933,-3.01151 -4.693326,-6.70657 -8.834796,-1.80738 z"
       id="path3023-3-6"
       inkscape:connector-curvature="0"
       sodipodi:nodetypes="ccccc" />
    <path
       style="fill:#00aa88;fill-opacity:1;stroke:#000000;stroke-width:1px;stroke-linecap:butt;stroke-linejoin:miter;stroke-opacity:1"
       d="m 47.838711,-298.50553 c 6.650061,6.19463 -2.336003,15.14858 -3.535534,22.72843 -0.357712,11.88292 8.49911,17.18582 18.687827,11.61675 5.72419,-4.2384 11.44839,-12.79527 17.17259,-19.1929 8.84601,-8.65324 -9.76481,-16.16244 -14.64721,-24.24366 -6.44112,-13.72908 -23.348718,3.7482 -17.677673,9.09138 z"
       id="path3045-2"
       inkscape:connector-curvature="0"
       sodipodi:nodetypes="cccccc" />
    <path
       style="fill:#00aa88;stroke:#000000;stroke-width:1px;stroke-linecap:butt;stroke-linejoin:miter;stroke-opacity:1;fill-opacity:1"
       d="m 58.86013,-206.90619 c 4.44455,7.00186 -2.05419,19.52962 -3.03046,29.29443 -0.16465,10.63074 25.09884,19.04297 25.75889,11.11167 -0.16015,-10.54501 10.10153,-14.14213 15.152286,-21.2132 10.882214,-8.47197 -44.748136,-30.89225 -37.880716,-19.1929 z"
       id="path3047-6"
       inkscape:connector-curvature="0"
       sodipodi:nodetypes="ccccc" />
    <path
       style="fill:#00aa88;fill-opacity:1;stroke:#000000;stroke-width:1px;stroke-linecap:butt;stroke-linejoin:miter;stroke-opacity:1"
       d="m -34.971275,-172.70203 c -9.76509,3.92397 -6.44467,23.45685 3.03046,21.71828 13.36686,-0.0506 26.2171003,3.34293 40.9111763,-5.55584 6.1593197,-2.6777 -4.714046,-17.84603 -7.071066,-26.76905 -2.24935997,-9.2089 -17.2102603,-12.14768 -22.2233603,-5.05076 -4.87297,5.33238 -9.56261,12.86466 -14.64721,15.65737 z"
       id="path3049-1"
       inkscape:connector-curvature="0"
       sodipodi:nodetypes="cccccc" />
    <path
       style="fill:#00aa88;fill-opacity:1;stroke:#000000;stroke-width:1px;stroke-linecap:butt;stroke-linejoin:miter;stroke-opacity:1"
       d="m -28.273076,-242.43484 c 5.050763,1.68359 16.620914,-8.42784 16.793786,-2.27285 -1.010153,6.06092 2.9681049,15.11488 -3.030458,18.18275 -2.525381,1.59941 -3.719246,-0.24513 -5.555839,4.79822 -0.93526,3.0997 -6.655912,10.44663 -8.838839,7.82868 1.262771,-9.21154 2.349375,-18.6976 0.63135,-28.5368 z"
       id="path3053-7"
       inkscape:connector-curvature="0"
       sodipodi:nodetypes="cccccc" />
    <path
       style="fill:#00aa88;stroke:#000000;stroke-width:1px;stroke-linecap:butt;stroke-linejoin:miter;stroke-opacity:1;fill-opacity:1"
       d="m 161.87695,-265.76062 11.49048,-15.40483 c 0.53165,-13.89067 -8.56747,-17.01804 -22.60216,-8.33376 -7.94352,6.91538 -8.57908,11.58216 -12.62691,17.29887 -3.9002,6.77751 3.9897,12.24422 6.06092,8.33375 3.94905,-7.29067 11.77568,-1.29502 17.67767,-1.89403 z"
       id="path3204"
       inkscape:connector-curvature="0"
       sodipodi:nodetypes="cccccc" />
    <path
       style="fill:#00aa88;stroke:#000000;stroke-width:1px;stroke-linecap:butt;stroke-linejoin:miter;stroke-opacity:1;fill-opacity:1"
       d="m -45.714286,-113.35211 c -4.940476,5.05953 -18.940703,2.56926 -14.821428,15.178576 1.130952,4.52381 -4.041909,11.524117 3.392857,13.571429 4.06747,0.697252 7.203322,3.790095 12.321428,1.785714 5.435029,-2.264655 11.730862,0.922443 16.25,-7.142857 0.184777,-2.938295 1.342124,-5.120147 0.178572,-9.107143 -1.052678,-2.142479 -0.280366,-2.703309 -3.571429,-6.785719 l -3.31889,-1.92281 c -3.592069,-0.86862 -7.173083,-2.87134 -10.43111,-5.57719 z"
       id="path3206"
       inkscape:connector-curvature="0"
       sodipodi:nodetypes="ccccccccc" />
    <path
       style="fill:#00d4aa;stroke:#000000;stroke-width:1.29229534px;stroke-linecap:butt;stroke-linejoin:miter;stroke-opacity:1"
       d="m 337.25657,-461.5051 c -17.8593,-3.66894 -5.7932,-31.24202 6.14717,-22.69725 6.65331,25.18165 6.39971,-14.02841 19.29122,-6.23026 11.20988,2.84486 -0.62093,24.37694 10.46955,9.44445 17.98151,-13.03308 14.31754,20.41954 1.47912,25.23282 -0.032,26.94926 -1.90128,55.03012 4.13477,81.03238 8.15975,22.74284 31.76777,28.39377 47.26065,16.82235 2.25271,-20.37494 -5.77634,-44.93936 0.83582,-66.42761 9.48984,-22.5815 -22.60776,-5.26509 -21.73083,-30.85402 -2.69777,-26.58828 27.00614,-13.0506 23.06865,-35.45402 12.37574,-21.43123 36.19093,-17.01375 54.16089,-18.25304 14.87062,1.65239 40.11807,-0.82047 41.28863,26.84591 2.13537,10.83533 26.26717,3.74565 20.03377,28.73256 -4.22634,20.95008 -26.68191,4.11209 -14.82733,28.17313 5.86219,19.87025 -7.50808,50.12817 -1.93543,63.30934 15.00666,0 30.01332,0 45.01998,0 5.42755,-12.51432 1.93402,-27.31147 2.6271,-41.0373 -0.29614,-22.25847 -0.59228,-44.51693 -0.88842,-66.7754 -13.79174,-10.07414 3.63808,-22.25251 9.80447,-16.19102 2.76544,3.89686 6.34442,21.18669 8.11072,8.63511 1.12195,-9.1585 4.71459,-13.21474 11.58908,-10.49357 8.69522,-3.11771 5.57126,7.88094 5.42232,15.32634 0.96134,3.71101 4.34774,-13.80957 7.52202,-14.36778 3.4596,3.08765 14.84112,4.05536 13.10548,8.5333 -3.52027,5.70049 -10.22034,9.35904 -11.62682,16.41693 -1.29788,31.74133 -2.59575,63.48266 -3.89363,95.224 -11.80804,15.42048 -18.53959,47.00624 -38.74397,39.91717 -12.08236,2.74188 -35.09786,-9.02553 -29.43636,18.13088 -0.73037,38.07029 13.30126,73.31756 28.94022,103.63926 14.09069,12.45947 39.56236,-19.71653 44.91622,13.53472 3.16381,17.89784 8.70297,42.57494 -0.94297,57.58972 -9.65196,8.63439 -20.94915,14.729 -29.18639,25.55785 -1.13857,20.17299 3.84713,46.51753 14.30582,57.912224 -6.20116,14.627123 -19.49945,12.183897 -23.96936,-2.678365 -3.08151,19.108016 -22.15694,17.598475 -18.67586,-2.395253 -8.02151,-5.331166 -21.16717,30.272522 -26.35163,6.485913 3.79756,-10.452515 17.15829,-11.469866 15.80587,-26.084577 5.61178,-21.378112 -11.96628,-57.847662 8.6425,-67.473802 21.43122,-3.86083 15.95117,-40.68883 -4.53678,-35.80677 -13.875,-0.65481 -34.37356,-3.57256 -40.49354,17.44762 -9.39328,20.71666 -31.89268,16.19423 -47.42149,15.15293 -18.72305,3.54362 -23.82226,-24.56614 -40.35014,-26.18349 -15.56977,0 -31.13953,0 -46.7093,0 -1.24743,13.61817 7.29777,42.09967 21.29136,44.91168 19.21604,14.05758 -7.2468,48.711714 9.20019,63.082859 3.97904,24.893692 -20.39922,15.488452 -17.41957,4.74617 -7.89839,24.847116 -25.02219,2.967662 -19.47678,-6.270848 -6.09615,9.599411 -17.54188,22.39247 -23.05846,3.535937 7.69857,-15.669876 12.36013,-34.732147 13.67417,-55.569158 3.5259,-23.63098 -22.23182,-13.46225 -22.91239,-36.95193 -11.26283,-19.9101 -17.92326,-64.96029 10.46813,-61.21424 15.72066,-0.58358 35.91453,15.22005 43.43383,-12.82504 12.57508,-28.40792 18.83576,-64.96039 9.3882,-96.60868 -17.34529,-1.11991 -34.88668,0.25581 -52.09551,-2.60876 -15.52322,-4.41164 -17.52625,-28.2057 -16.27315,-45.84981 0.50607,-29.35718 1.01213,-58.71437 1.51819,-88.07156 z"
       id="path3006-0-3"
       inkscape:connector-curvature="0"
       sodipodi:nodetypes="cccccccccccccccccccccccccccccccccccccccccccccccccccccccc" />
    <path
       style="fill:#ffffff;stroke:#000000;stroke-width:1.15839815px;stroke-linecap:butt;stroke-linejoin:miter;stroke-opacity:1"
       d="m 425.15517,-436.80065 c -0.35714,0 -5.35714,-1.67736 -5.35714,-1.67736 l -4.64286,-1.31792 -4.10714,-1.67736 -3.125,-2.99529 -2.14286,-3.95376 -0.53572,-4.43303 -0.35714,-3.71413 0.35714,-3.47454 0.17857,-2.84552 1.22768,-3.32475 1.62946,-2.69576 3.21429,-2.75565 3.57143,-2.0368 4.55357,-1.79717 3.66071,-1.79717 c 19.11188,11.38208 9.05444,43.85243 1.87501,40.49621 z"
       id="path3021-9-6"
       inkscape:connector-curvature="0"
       sodipodi:nodetypes="ccccccccccccccccc" />
    <path
       style="fill:#008080;stroke:#000000;stroke-width:1.15839815px;stroke-linecap:butt;stroke-linejoin:miter;stroke-opacity:1"
       d="m 412.57037,-474.45046 c -0.84838,1.74714 -1.76815,3.65817 -1.70092,6.01963 -0.16283,1.88111 1.51673,6.34604 6.07143,6.23019 4.78599,-0.45868 4.82724,-4.96901 4.46429,-9.82452 -0.28933,-4.04111 -4.69333,-8.99946 -8.8348,-2.4253 z"
       id="path3023-36-1"
       inkscape:connector-curvature="0"
       sodipodi:nodetypes="ccccc" />
    <path
       style="fill:#ffffff;stroke:#000000;stroke-width:1.15839815px;stroke-linecap:butt;stroke-linejoin:miter;stroke-opacity:1"
       d="m 526.36054,-477.7162 2.05357,1.0184 3.125,1.43773 3.08035,1.37783 2.85715,1.19812 2.72321,1.85707 2.23214,2.21651 1.65179,2.87547 0.58036,3.2349 0,3.23491 -0.58036,4.01368 -0.89286,3.89385 -1.65178,4.1335 -2.41072,2.75565 -3.125,2.0967 -2.85714,1.25802 -3.88393,1.0783 -1.07143,0.35944 c -10.86516,4.51766 -14.13329,-33.14618 -1.83035,-38.04008 z"
       id="path3025-0-2"
       inkscape:connector-curvature="0"
       sodipodi:nodetypes="ccccccccccccccccccc" />
    <path
       style="fill:#008080;stroke:#000000;stroke-width:1.15839815px;stroke-linecap:butt;stroke-linejoin:miter;stroke-opacity:1"
       d="m 529.02609,-474.63494 c -0.84838,1.74713 -1.76815,3.65817 -1.70091,6.01963 -0.16284,1.88111 1.51672,6.34604 6.07143,6.23019 4.78598,-0.45868 4.82723,-4.96902 4.46428,-9.82452 -0.28933,-4.04111 -4.69333,-8.99946 -8.8348,-2.4253 z"
       id="path3023-3-6-9"
       inkscape:connector-curvature="0"
       sodipodi:nodetypes="ccccc" />
    <path
       style="fill:#00aa88;fill-opacity:1;stroke:#000000;stroke-width:1.15839815px;stroke-linecap:butt;stroke-linejoin:miter;stroke-opacity:1"
       d="m 483.81852,-382.99962 c 6.65006,8.31249 -2.33601,20.32767 -3.53554,30.49897 -0.35771,15.94553 8.49911,23.06141 18.68783,15.58836 5.72419,-5.68745 11.44839,-17.1698 17.17259,-25.75469 8.84601,-11.61166 -9.76481,-21.68816 -14.64721,-32.53223 -6.44112,-18.42287 -23.34872,5.02965 -17.67767,12.19959 z"
       id="path3045-2-3"
       inkscape:connector-curvature="0"
       sodipodi:nodetypes="cccccc" />
    <path
       style="fill:#00aa88;fill-opacity:1;stroke:#000000;stroke-width:1.15839815px;stroke-linecap:butt;stroke-linejoin:miter;stroke-opacity:1"
       d="m 494.83994,-260.08373 c 4.44455,9.3957 -2.05419,26.20653 -3.03046,39.30979 -0.16465,14.26524 25.09884,25.5535 25.75889,14.9106 -0.16015,-14.1502 10.10153,-18.97713 15.15228,-28.4657 10.88222,-11.36842 -44.74813,-41.45388 -37.88071,-25.75469 z"
       id="path3047-6-1"
       inkscape:connector-curvature="0"
       sodipodi:nodetypes="ccccc" />
    <path
       style="fill:#00aa88;fill-opacity:1;stroke:#000000;stroke-width:1.15839815px;stroke-linecap:butt;stroke-linejoin:miter;stroke-opacity:1"
       d="m 401.00853,-214.18564 c -9.76509,5.26552 -6.44467,31.47642 3.03046,29.14346 13.36686,-0.0679 26.2171,4.48583 40.91118,-7.4553 6.15932,-3.59317 -4.71405,-23.94735 -7.07107,-35.92102 -2.24936,-12.3573 -17.21026,-16.30081 -22.22336,-6.77755 -4.87297,7.15545 -9.56261,17.26291 -14.64721,21.01041 z"
       id="path3049-1-9"
       inkscape:connector-curvature="0"
       sodipodi:nodetypes="cccccc" />
    <path
       style="fill:#00aa88;fill-opacity:1;stroke:#000000;stroke-width:1.15839815px;stroke-linecap:butt;stroke-linejoin:miter;stroke-opacity:1"
       d="m 407.70672,-307.75913 c 5.05077,2.25918 16.62092,-11.3092 16.79379,-3.04991 -1.01015,8.13307 2.96811,20.28245 -3.03046,24.39918 -2.52538,2.14623 -3.71924,-0.32893 -5.55584,6.43867 -0.93526,4.15944 -6.65591,14.01819 -8.83884,10.50519 1.26278,-12.36083 2.34938,-25.09005 0.63135,-38.29313 z"
       id="path3053-7-4"
       inkscape:connector-curvature="0"
       sodipodi:nodetypes="cccccc" />
    <path
       style="fill:#00aa88;fill-opacity:1;stroke:#000000;stroke-width:1.15839815px;stroke-linecap:butt;stroke-linejoin:miter;stroke-opacity:1"
       d="m 597.85676,-339.05967 11.49048,-20.67153 c 0.53165,-18.6397 -8.56747,-22.83627 -22.60216,-11.18296 -7.94352,9.27965 -8.57908,15.54194 -12.62691,23.21311 -3.9002,9.09465 3.9897,16.43035 6.06092,11.18295 3.94905,-9.78325 11.77568,-1.73777 17.67767,-2.54157 z"
       id="path3204-7"
       inkscape:connector-curvature="0"
       sodipodi:nodetypes="cccccc" />
    <path
       style="fill:#00aa88;fill-opacity:1;stroke:#000000;stroke-width:1.15839815px;stroke-linecap:butt;stroke-linejoin:miter;stroke-opacity:1"
       d="m 390.26551,-134.5448 c -4.94047,6.78931 -18.9407,3.44765 -14.82142,20.36792 1.13095,6.07044 -4.04191,15.464056 3.39285,18.211313 4.06747,0.93563 7.20333,5.085869 12.32143,2.39622 5.43503,-3.038903 11.73086,1.237823 16.25,-9.584893 0.18478,-3.94286 1.34213,-6.87066 0.17857,-12.22076 -1.05267,-2.87496 -0.28036,-3.62753 -3.57143,-9.10566 l -3.31889,-2.58019 c -3.59206,-1.16559 -7.17308,-3.85301 -10.43111,-7.48395 z"
       id="path3206-8"
       inkscape:connector-curvature="0"
       sodipodi:nodetypes="ccccccccc" />
    <path
       style="fill:#ffcc00;fill-opacity:1;stroke:#000000;stroke-width:2.62580061px;stroke-linecap:butt;stroke-linejoin:miter;stroke-opacity:1"
       d="m -800.36519,-326.41156 -0.85252,243.459033 436.47917,-2.063213 -0.8525,-243.45901 z"
       id="path3280"
       inkscape:connector-curvature="0" />
    <path
       style="fill:#7c916f;fill-opacity:1;stroke:#000000;stroke-width:2.62580061px;stroke-linecap:butt;stroke-linejoin:miter;stroke-opacity:1"
       d="m -774.79026,-326.92736 0,-27.33757 25.29941,-0.11988 0.27556,27.45737 z"
       id="path3282"
       inkscape:connector-curvature="0"
       sodipodi:nodetypes="ccccc" />
    <path
       style="fill:#7c916f;fill-opacity:1;stroke:#000000;stroke-width:2.62580061px;stroke-linecap:butt;stroke-linejoin:miter;stroke-opacity:1"
       d="m -416.40515,-328.70884 0,-27.33758 25.2994,-0.11987 0.27555,27.45736 z"
       id="path3282-4"
       inkscape:connector-curvature="0"
       sodipodi:nodetypes="ccccc" />
    <path
       style="fill:#7c916f;fill-opacity:1;stroke:#000000;stroke-width:2.62580061px;stroke-linecap:butt;stroke-linejoin:miter;stroke-opacity:1"
       d="m -416.05529,-57.47505 0,-27.337573 25.2994,-0.119873 0.27555,27.457359 z"
       id="path3282-5"
       inkscape:connector-curvature="0"
       sodipodi:nodetypes="ccccc" />
    <path
       style="fill:#7c916f;stroke:#000000;stroke-width:2.54930115px;stroke-linecap:butt;stroke-linejoin:miter;stroke-opacity:1"
       d="m -774.12287,-56.133792 0,-25.767891 25.29939,-0.112999 0.27557,25.880797 z"
       id="path3282-0"
       inkscape:connector-curvature="0"
       sodipodi:nodetypes="ccccc" />
    <path
       style="fill:#7c916f;fill-opacity:1;stroke:#000000;stroke-width:2.55436897px;stroke-linecap:butt;stroke-linejoin:miter;stroke-opacity:1"
       d="m -876.6638,-327.56731 0,-25.87045 25.2994,-0.1135 0.27555,25.98379 z"
       id="path3282-2"
       inkscape:connector-curvature="0"
       sodipodi:nodetypes="ccccc" />
    <path
       style="fill:#7c916f;fill-opacity:1;stroke:#000000;stroke-width:2.54168701px;stroke-linecap:butt;stroke-linejoin:miter;stroke-opacity:1"
       d="m -877.51629,-58.391941 0,-25.614185 25.29941,-0.112299 0.27555,25.726419 z"
       id="path3282-06"
       inkscape:connector-curvature="0"
       sodipodi:nodetypes="ccccc" />
    <path
       style="fill:#ffcc00;stroke:#000000;stroke-width:2.62580061px;stroke-linecap:butt;stroke-linejoin:miter;stroke-opacity:1"
       d="m -980.24235,-273.79964 c -0.96082,-39.872 19.20965,-55.01793 51.14992,-53.64352 l 91.64355,1.0316 c 28.98528,-4.90066 32.23677,237.10092 0.42624,242.427427 l -90.79105,-0.515805 c -8.94138,-0.153668 -50.35486,-2.641625 -51.57616,-54.159322 z"
       id="path3389"
       inkscape:connector-curvature="0"
       sodipodi:nodetypes="ccccccc" />
    <path
       style="fill:#80ffb3;stroke:#000000;stroke-width:2.62580061px;stroke-linecap:butt;stroke-linejoin:miter;stroke-opacity:1"
       d="m -919.28871,-280.01127 -0.42627,151.13028 c 1.76948,15.67499 19.00998,12.44841 40.49368,12.37927 l -0.85249,-179.49946 c -11.78505,-0.51718 -39.26679,-6.24551 -39.21492,15.98991 z"
       id="path3443"
       inkscape:connector-curvature="0"
       sodipodi:nodetypes="ccccc" />
    <path
       style="fill:#dee3db;stroke:#000000;stroke-width:2.62580061px;stroke-linecap:butt;stroke-linejoin:miter;stroke-opacity:1"
       d="m -913.39353,-156.91481 c -1.76442,40.40436 8.09113,30.53467 13.71387,31.91368 -6.84096,-6.71427 -10.83317,-18.35324 -13.71387,-31.91368 z"
       id="path3445"
       inkscape:connector-curvature="0"
       sodipodi:nodetypes="ccc" />
  </g>
  <g
     inkscape:groupmode="layer"
     id="layer2"
     inkscape:label="Capa2">
    <path
       style="fill:#3e4837;stroke:#000000;stroke-width:2.27734661px;stroke-linecap:butt;stroke-linejoin:miter;stroke-opacity:1"
       d="m -900.88529,-60.465514 0.30141,20.301839 c 1.62547,15.019985 76.59378,8.840283 76.25511,-0.27435 l -0.30137,-20.027489 c 1.33378,-9.953302 -76.63576,-12.299936 -76.25515,0 z"
       id="path3316-0"
       inkscape:connector-curvature="0"
       sodipodi:nodetypes="ccccc" />
    <path
       style="fill:#3e4837;stroke:#000000;stroke-width:2.27734661px;stroke-linecap:butt;stroke-linejoin:miter;stroke-opacity:1"
       d="m -799.2153,-61.732562 0.3014,20.301842 c 1.62547,15.019984 76.59378,8.840282 76.25512,-0.27435 l -0.30138,-20.027492 c 1.33378,-9.953302 -76.63575,-12.299936 -76.25514,0 z"
       id="path3316-0-1"
       inkscape:connector-curvature="0"
       sodipodi:nodetypes="ccccc" />
    <path
       style="fill:#3e4837;stroke:#000000;stroke-width:2.27734661px;stroke-linecap:butt;stroke-linejoin:miter;stroke-opacity:1"
       d="m -441.58598,-64.311576 0.30142,20.301838 c 1.62546,15.019984 76.59378,8.840282 76.25512,-0.27435 l -0.30139,-20.027488 c 1.33377,-9.953302 -76.63575,-12.299938 -76.25515,0 z"
       id="path3316-0-5"
       inkscape:connector-curvature="0"
       sodipodi:nodetypes="ccccc" />
    <path
       style="fill:#3e4837;stroke:#000000;stroke-width:2.27734661px;stroke-linecap:butt;stroke-linejoin:miter;stroke-opacity:1"
       d="m -441.28739,-368.99681 0.30141,20.30185 c 1.62547,15.01999 76.59379,8.84027 76.25512,-0.27441 l -0.30139,-20.0275 c 1.33379,-9.9533 -76.63574,-12.29992 -76.25514,0 z"
       id="path3316-0-54"
       inkscape:connector-curvature="0"
       sodipodi:nodetypes="ccccc" />
    <path
       style="fill:#3e4837;stroke:#000000;stroke-width:2.27734661px;stroke-linecap:butt;stroke-linejoin:miter;stroke-opacity:1"
       d="m -802.32613,-372.02905 0.3014,20.30186 c 1.62547,15.01998 76.59378,8.84028 76.25512,-0.27441 l -0.30138,-20.02751 c 1.33378,-9.9533 -76.63575,-12.29991 -76.25514,0 z"
       id="path3316-0-7"
       inkscape:connector-curvature="0"
       sodipodi:nodetypes="ccccc" />
    <path
       style="fill:#3e4837;stroke:#000000;stroke-width:2.27734661px;stroke-linecap:butt;stroke-linejoin:miter;stroke-opacity:1"
       d="m -901.18655,-370.93483 0.3014,20.30183 c 1.62548,15.01999 76.59379,8.84028 76.25512,-0.2744 l -0.30137,-20.02749 c 1.33377,-9.95332 -76.63576,-12.29993 -76.25515,0 z"
       id="path3316-0-6"
       inkscape:connector-curvature="0"
       sodipodi:nodetypes="ccccc" />
    <path
       style="fill:none;stroke:#000000;stroke-width:2.62580061px;stroke-linecap:butt;stroke-linejoin:miter;stroke-opacity:1"
       d="m -883.69692,-378.50766 c -3.58751,13.11424 -2.4598,24.51673 -0.42624,35.59039"
       id="path3481"
       inkscape:connector-curvature="0"
       sodipodi:nodetypes="cc" />
    <path
       style="fill:none;stroke:#000000;stroke-width:2.62580061px;stroke-linecap:butt;stroke-linejoin:miter;stroke-opacity:1"
       d="m -778.41336,-380.57088 c -3.45939,14.70955 -2.55542,26.53905 0.21316,37.13781"
       id="path3483"
       inkscape:connector-curvature="0"
       sodipodi:nodetypes="cc" />
    <path
       style="fill:none;stroke:#000000;stroke-width:2.62580061px;stroke-linecap:butt;stroke-linejoin:miter;stroke-opacity:1"
       d="m -848.10509,-68.510042 c 6.62768,14.378946 2.41707,33.708812 0.85248,35.710194"
       id="path3485"
       inkscape:connector-curvature="0"
       sodipodi:nodetypes="cc" />
    <path
       style="fill:none;stroke:#000000;stroke-width:2.62580061px;stroke-linecap:butt;stroke-linejoin:miter;stroke-opacity:1"
       d="m -777.62331,-69.604224 c -2.55452,8.551452 -3.21275,20.851063 -0.15062,36.68459"
       id="path3487"
       inkscape:connector-curvature="0"
       sodipodi:nodetypes="cc" />
    <path
       style="fill:none;stroke:#000000;stroke-width:2.62580061px;stroke-linecap:butt;stroke-linejoin:miter;stroke-opacity:1"
       d="m -382.27612,-375.83622 c 1.90056,3.4698 4.01121,24.00103 0.0699,34.0708"
       id="path3489"
       inkscape:connector-curvature="0"
       sodipodi:nodetypes="cc" />
    <path
       style="fill:none;stroke:#000000;stroke-width:2.62580061px;stroke-linecap:butt;stroke-linejoin:miter;stroke-opacity:1"
       d="m -386.02437,-72.056189 c 5.98475,15.475232 2.25638,30.178234 0.5511,35.408045"
       id="path3491"
       inkscape:connector-curvature="0"
       sodipodi:nodetypes="cc" />
    <path
       style="fill:#7c916f;fill-opacity:1;stroke:#000000;stroke-width:2.62580061px;stroke-linecap:butt;stroke-linejoin:miter;stroke-opacity:1"
       d="m -845.90595,151.63702 c 23.7278,-4.19283 54.0866,-2.99738 77.8145,-3.52213 0,0 -1.6535,140.85636 -4.8779,142.9052 -3.41,2.16681 -71.3904,6.54438 -71.3904,-4.12641 z"
       id="path3448-5"
       inkscape:connector-curvature="0"
       sodipodi:nodetypes="ccscc" />
    <path
       style="fill:#ffcc00;fill-opacity:1;stroke:#000000;stroke-width:2.62580061px;stroke-linecap:butt;stroke-linejoin:miter;stroke-opacity:1"
       d="m -808.70115,97.48399 -0.8525,243.45903 436.4792,-2.06321 -0.8525,-243.45901 z"
       id="path3280-6"
       inkscape:connector-curvature="0" />
    <path
       style="fill:#7c916f;fill-opacity:1;stroke:#000000;stroke-width:2.62580061px;stroke-linecap:butt;stroke-linejoin:miter;stroke-opacity:1"
       d="m -783.12615,96.96819 0,-27.33757 25.2994,-0.11988 0.2755,27.45737 z"
       id="path3282-9"
       inkscape:connector-curvature="0"
       sodipodi:nodetypes="ccccc" />
    <path
       style="fill:#7c916f;fill-opacity:1;stroke:#000000;stroke-width:2.62580061px;stroke-linecap:butt;stroke-linejoin:miter;stroke-opacity:1"
       d="m -424.74105,95.18671 0,-27.33758 25.2994,-0.11987 0.2755,27.45736 z"
       id="path3282-4-3"
       inkscape:connector-curvature="0"
       sodipodi:nodetypes="ccccc" />
    <path
       style="fill:#7c916f;fill-opacity:1;stroke:#000000;stroke-width:2.62580061px;stroke-linecap:butt;stroke-linejoin:miter;stroke-opacity:1"
       d="m -424.39125,366.4205 0,-27.33757 25.2994,-0.11988 0.2756,27.45736 z"
       id="path3282-5-7"
       inkscape:connector-curvature="0"
       sodipodi:nodetypes="ccccc" />
    <path
       style="fill:#7c916f;stroke:#000000;stroke-width:2.54930115px;stroke-linecap:butt;stroke-linejoin:miter;stroke-opacity:1"
       d="m -782.45885,367.76176 0,-25.76789 25.2994,-0.113 0.2756,25.8808 z"
       id="path3282-0-4"
       inkscape:connector-curvature="0"
       sodipodi:nodetypes="ccccc" />
    <path
       style="fill:#7c916f;fill-opacity:1;stroke:#000000;stroke-width:2.55436897px;stroke-linecap:butt;stroke-linejoin:miter;stroke-opacity:1"
       d="m -884.99975,96.32824 0,-25.87045 25.2994,-0.1135 0.2756,25.98379 z"
       id="path3282-2-5"
       inkscape:connector-curvature="0"
       sodipodi:nodetypes="ccccc" />
    <path
       style="fill:#7c916f;fill-opacity:1;stroke:#000000;stroke-width:2.54168701px;stroke-linecap:butt;stroke-linejoin:miter;stroke-opacity:1"
       d="m -885.85225,365.50361 0,-25.61419 25.2994,-0.11229 0.2756,25.72641 z"
       id="path3282-06-2"
       inkscape:connector-curvature="0"
       sodipodi:nodetypes="ccccc" />
    <path
       style="fill:#ffcc00;stroke:#000000;stroke-width:2.62580061px;stroke-linecap:butt;stroke-linejoin:miter;stroke-opacity:1"
       d="m -988.57825,150.09591 c -0.9609,-39.872 19.2096,-55.01793 51.1499,-53.64352 l 91.6435,1.0316 c 28.9853,-4.90066 32.2368,237.10092 0.4263,242.42743 l -90.7911,-0.51581 c -8.9414,-0.15367 -50.3548,-2.64162 -51.5761,-54.15932 z"
       id="path3389-5"
       inkscape:connector-curvature="0"
       sodipodi:nodetypes="ccccccc" />
    <path
       style="fill:#80ffb3;stroke:#000000;stroke-width:2.62580061px;stroke-linecap:butt;stroke-linejoin:miter;stroke-opacity:1"
       d="m -927.62465,143.88428 -0.4263,151.13028 c 1.7695,15.67499 19.01,12.44841 40.4937,12.37927 l -0.8525,-179.49946 c -11.785,-0.51718 -39.2668,-6.24551 -39.2149,15.98991 z"
       id="path3443-4"
       inkscape:connector-curvature="0"
       sodipodi:nodetypes="ccccc" />
    <path
       style="fill:#dee3db;stroke:#000000;stroke-width:2.62580061px;stroke-linecap:butt;stroke-linejoin:miter;stroke-opacity:1"
       d="m -921.72945,266.98074 c -1.7644,40.40436 8.0911,30.53467 13.7139,31.91368 -6.841,-6.71427 -10.8332,-18.35324 -13.7139,-31.91368 z"
       id="path3445-7"
       inkscape:connector-curvature="0"
       sodipodi:nodetypes="ccc" />
    <path
       style="fill:#3e4837;stroke:#000000;stroke-width:2.27734661px;stroke-linecap:butt;stroke-linejoin:miter;stroke-opacity:1"
       d="m -909.22125,363.43004 0.3014,20.30184 c 1.6255,15.01998 76.5938,8.84028 76.2551,-0.27435 l -0.3013,-20.02749 c 1.3338,-9.95331 -76.6358,-12.29994 -76.2552,0 z"
       id="path3316-0-4"
       inkscape:connector-curvature="0"
       sodipodi:nodetypes="ccccc" />
    <path
       style="fill:#3e4837;stroke:#000000;stroke-width:2.27734661px;stroke-linecap:butt;stroke-linejoin:miter;stroke-opacity:1"
       d="m -807.55125,362.16299 0.3014,20.30184 c 1.6255,15.01998 76.5938,8.84028 76.2551,-0.27435 l -0.3013,-20.02749 c 1.3337,-9.9533 -76.6358,-12.29994 -76.2552,0 z"
       id="path3316-0-1-4"
       inkscape:connector-curvature="0"
       sodipodi:nodetypes="ccccc" />
    <path
       style="fill:#3e4837;stroke:#000000;stroke-width:2.27734661px;stroke-linecap:butt;stroke-linejoin:miter;stroke-opacity:1"
       d="m -449.92195,359.58397 0.3015,20.30184 c 1.6254,15.01999 76.5937,8.84028 76.2551,-0.27435 l -0.3014,-20.02749 c 1.3338,-9.9533 -76.6358,-12.29993 -76.2552,0 z"
       id="path3316-0-5-3"
       inkscape:connector-curvature="0"
       sodipodi:nodetypes="ccccc" />
    <path
       style="fill:#3e4837;stroke:#000000;stroke-width:2.27734661px;stroke-linecap:butt;stroke-linejoin:miter;stroke-opacity:1"
       d="m -449.62335,54.89874 0.3014,20.30185 c 1.6255,15.01999 76.5938,8.84027 76.2552,-0.27441 l -0.3014,-20.0275 c 1.3338,-9.9533 -76.6358,-12.29992 -76.2552,0 z"
       id="path3316-0-54-0"
       inkscape:connector-curvature="0"
       sodipodi:nodetypes="ccccc" />
    <path
       style="fill:#3e4837;stroke:#000000;stroke-width:2.27734661px;stroke-linecap:butt;stroke-linejoin:miter;stroke-opacity:1"
       d="m -810.66205,51.8665 0.3014,20.30186 c 1.6255,15.01998 76.5938,8.84028 76.2551,-0.27441 l -0.3014,-20.02751 c 1.3338,-9.9533 -76.6357,-12.29991 -76.2551,0 z"
       id="path3316-0-7-7"
       inkscape:connector-curvature="0"
       sodipodi:nodetypes="ccccc" />
    <path
       style="fill:#3e4837;stroke:#000000;stroke-width:2.27734661px;stroke-linecap:butt;stroke-linejoin:miter;stroke-opacity:1"
       d="m -909.52245,52.96072 0.3014,20.30183 c 1.6254,15.01999 76.5938,8.84028 76.2551,-0.2744 l -0.3014,-20.02749 c 1.3338,-9.95332 -76.6357,-12.29993 -76.2551,0 z"
       id="path3316-0-6-8"
       inkscape:connector-curvature="0"
       sodipodi:nodetypes="ccccc" />
    <path
       style="fill:none;stroke:#000000;stroke-width:2.62580061px;stroke-linecap:butt;stroke-linejoin:miter;stroke-opacity:1"
       d="m -856.03285,45.38789 c 3.59252,12.651013 3.5264,23.9403 -0.4262,35.59039"
       id="path3481-6"
       inkscape:connector-curvature="0"
       sodipodi:nodetypes="cc" />
    <path
       style="fill:none;stroke:#000000;stroke-width:2.62580061px;stroke-linecap:butt;stroke-linejoin:miter;stroke-opacity:1"
       d="m -749.87868,45.218706 c 3.20001,13.989613 2.72578,22.504233 -0.29198,33.728545"
       id="path3483-8"
       inkscape:connector-curvature="0"
       sodipodi:nodetypes="cc" />
    <path
       style="fill:none;stroke:#000000;stroke-width:2.62580061px;stroke-linecap:butt;stroke-linejoin:miter;stroke-opacity:1"
       d="m -890.90534,356.0998 c -5.33079,15.37548 -0.21006,34.25512 2.63822,35.88876"
       id="path3485-8"
       inkscape:connector-curvature="0"
       sodipodi:nodetypes="cc" />
    <path
       style="fill:none;stroke:#000000;stroke-width:2.62580061px;stroke-linecap:butt;stroke-linejoin:miter;stroke-opacity:1"
       d="m -748.28068,355.54133 c 1.91343,8.33869 3.90362,17.19586 1.45654,33.29173"
       id="path3487-4"
       inkscape:connector-curvature="0"
       sodipodi:nodetypes="cc" />
    <path
       style="fill:none;stroke:#000000;stroke-width:2.62580061px;stroke-linecap:butt;stroke-linejoin:miter;stroke-opacity:1"
       d="m -430.45514,47.081674 c -2.15699,2.780877 -4.65701,27.833788 -2.78715,35.856514"
       id="path3489-3"
       inkscape:connector-curvature="0"
       sodipodi:nodetypes="cc" />
    <path
       style="fill:none;stroke:#000000;stroke-width:2.62580061px;stroke-linecap:butt;stroke-linejoin:miter;stroke-opacity:1"
       d="m -433.25122,352.47071 c -5.86198,17.19188 0.28004,32.83095 1.56125,35.66058"
       id="path3491-1"
       inkscape:connector-curvature="0"
       sodipodi:nodetypes="cc" />
  </g>
</svg>
